<mxfile host="app.diagrams.net" modified="2022-05-12T23:17:46.924Z" agent="5.0 (Windows NT 10.0; Win64; x64) AppleWebKit/537.36 (KHTML, like Gecko) Chrome/101.0.4951.54 Safari/537.36" etag="xvcobOAl4C1z5bqoBPGp" version="18.0.3" type="github">
  <diagram id="iwLks6HY5HqMqOYmhnq3" name="Page-1">
    <mxGraphModel dx="1738" dy="1022" grid="1" gridSize="10" guides="1" tooltips="1" connect="1" arrows="1" fold="1" page="1" pageScale="1" pageWidth="850" pageHeight="1100" math="0" shadow="0">
      <root>
        <mxCell id="0" />
        <mxCell id="1" parent="0" />
      </root>
    </mxGraphModel>
  </diagram>
</mxfile>
